<?xml version="1.0" encoding="UTF-8" standalone="no"?>
<!-- Created with Inkscape (http://www.inkscape.org/) -->

<svg
   width="210mm"
   height="297mm"
   viewBox="0 0 210 297"
   version="1.1"
   id="svg5"
   xmlns="http://www.w3.org/2000/svg"
   xmlns:svg="http://www.w3.org/2000/svg">
  <defs
     id="defs2" />
  <g
     id="layer1">
    <path
       style="fill:#3b627a;fill-opacity:1;stroke:#000000;stroke-width:0.264583"
       d="m -12.539204,107.83715 c 0,0 53.739445,16.12184 59.829916,-12.180939 C 53.381182,67.353436 46.215921,25.43667 64.487334,20.062726 82.758745,14.688781 135.06514,15.405308 137.57298,5.3739443 140.08082,-4.6574186 112.85283,-22.570567 112.85283,-22.570567 L -11.106152,-39.408925 Z"
       id="path1551" />
    <path
       style="fill:#01a07a;stroke:#000000;stroke-width:0.264583"
       d="m -20.062726,45.857659 c 0,0 34.393244,24.720145 51.231603,-4.657418 C 48.007238,11.822678 59.471652,6.8069962 80.609166,8.240048 101.74668,9.6730999 94.581423,-8.240048 94.581423,-8.240048 L -17.196622,-37.617611 Z"
       id="path792" />
    <path
       style="fill:#3b627a;fill-opacity:1;stroke:#000000;stroke-width:0.264583"
       d="m -13.613993,31.885403 c 0,0 16.1218337,3.224368 23.645356,-3.582628 C 17.554885,21.495778 20.420989,10.031363 26.869723,8.9565741 33.318455,7.8817853 34.751507,15.76357 41.200241,13.972256 47.648973,12.180941 51.589868,2.5078407 50.156816,0.35826297 48.723764,-1.7913148 6.8069962,-23.287093 6.8069962,-23.287093 Z"
       id="path790" />
  </g>
</svg>
